<svg xmlns="http://www.w3.org/2000/svg" viewBox="0 0 841.89 595.28"><defs><style>.cls-1{fill:#fff;}</style></defs><g id="Layer_2" data-name="Layer 2"><path class="cls-1" d="M332.79,196.66V277c0,27-13.61,41.16-33.17,41.16a39.87,39.87,0,0,1-13-2.15A35.33,35.33,0,0,0,306,322c20.09,0,34.27-16,34.27-43.55V193.11Z"/><path class="cls-1" d="M297.69,279.07V265.33l-18.19,6.38V261.59l18.19-7.12V241.8l-18.19,6.38V238.06l18.19-7.12V211.81L266,226.1v54.6c0,10.42,6.55,17.41,16.22,17.41S297.69,291,297.69,279.07Z"/><path class="cls-1" d="M311.65,276.06V205.55l-7.2,3.46v68.12c0,18.38-7.84,25.36-20.63,25.36A39.28,39.28,0,0,1,273,300.56,25.52,25.52,0,0,0,288.66,306C302.2,306,311.65,296.69,311.65,276.06Z"/><path class="cls-1" d="M325.83,277.35v-78l-7.3,3.46v73.9c0,23.32-11,33.63-27.4,33.63a42.63,42.63,0,0,1-13-2.47,31,31,0,0,0,18.16,6.35C313.48,314.2,325.83,301.74,325.83,277.35Z"/></g></svg>