<?xml version="1.0" encoding="UTF-8"?>
<svg width="21px" height="21px" viewBox="0 0 21 21" version="1.1" xmlns="http://www.w3.org/2000/svg" xmlns:xlink="http://www.w3.org/1999/xlink">
    <!-- Generator: Sketch 63.1 (92452) - https://sketch.com -->
    <title>baseline-search-24px (1)</title>
    <desc>Created with Sketch.</desc>
    <g id="Symbols" stroke="none" stroke-width="1" fill="none" fill-rule="evenodd">
        <g id="Search" transform="translate(-205.000000, -8.000000)">
            <g id="baseline-search-24px-(1)" transform="translate(203.000000, 6.000000)">
                <path d="M16.4901372,14.8113208 L15.6059605,14.8113208 L15.2925815,14.5091338 C16.3894082,13.2332333 17.0497427,11.576801 17.0497427,9.77487136 C17.0497427,5.75690395 13.7928388,2.5 9.77487136,2.5 C5.75690395,2.5 2.5,5.75690395 2.5,9.77487136 C2.5,13.7928388 5.75690395,17.0497427 9.77487136,17.0497427 C11.576801,17.0497427 13.2332333,16.3894082 14.5091338,15.2925815 L14.8113208,15.6059605 L14.8113208,16.4901372 L20.4073756,22.075 L22.075,20.4073756 L16.4901372,14.8113208 Z M9.77487136,14.8113208 C6.98803602,14.8113208 4.73842196,12.5617067 4.73842196,9.77487136 C4.73842196,6.98803602 6.98803602,4.73842196 9.77487136,4.73842196 C12.5617067,4.73842196 14.8113208,6.98803602 14.8113208,9.77487136 C14.8113208,12.5617067 12.5617067,14.8113208 9.77487136,14.8113208 Z" id="Shape" fill="#1D3779" fill-rule="nonzero"></path>
                <polygon id="Path" points="0 0 25 0 25 25 0 25"></polygon>
            </g>
        </g>
    </g>
</svg>