<svg id="Layer_1" data-name="Layer 1" xmlns="http://www.w3.org/2000/svg" viewBox="0 0 380.92 128.85"><defs><style>.cls-1{font-size:49.99px;font-family:CenturyGothic-Bold, Century Gothic;font-weight:700;}.cls-1,.cls-2{fill:#fff;}</style></defs><text class="cls-1" transform="translate(87.08 56.73)">East</text><text class="cls-1" transform="translate(89.97 110.82)">Canada Inc</text><path class="cls-2" d="M282.72,236.53V316.9c0,27-13.62,41.15-33.18,41.15a39.59,39.59,0,0,1-13-2.15,35.33,35.33,0,0,0,19.34,5.94c20.08,0,34.27-16,34.27-43.55V233Z" transform="translate(-215.91 -232.98)"/><path class="cls-2" d="M247.61,318.94V305.2l-18.18,6.38V301.46l18.18-7.12V281.67l-18.18,6.38V277.93l18.18-7.12V251.68L215.91,266v54.6c0,10.43,6.56,17.41,16.23,17.41S247.61,330.87,247.61,318.94Z" transform="translate(-215.91 -232.98)"/><path class="cls-2" d="M261.57,315.93v-70.5l-7.19,3.45V317c0,18.37-7.85,25.35-20.63,25.35a39.21,39.21,0,0,1-10.85-1.93,25.57,25.57,0,0,0,15.69,5.48C252.13,345.91,261.57,336.56,261.57,315.93Z" transform="translate(-215.91 -232.98)"/><path class="cls-2" d="M275.76,317.22v-78l-7.31,3.46v73.9c0,23.32-10.95,33.63-27.4,33.63a42.62,42.62,0,0,1-13-2.47,30.94,30.94,0,0,0,18.16,6.36C263.41,354.08,275.76,341.61,275.76,317.22Z" transform="translate(-215.91 -232.98)"/></svg>