<svg id="Layer_1" data-name="Layer 1" xmlns="http://www.w3.org/2000/svg" viewBox="0 0 786.65 266.1"><defs><style>.cls-1{font-size:103.23px;font-family:CenturyGothic-Bold, Century Gothic;font-weight:700;}.cls-1,.cls-2{fill:#253371;}</style></defs><text class="cls-1" transform="translate(179.84 117.16)">East</text><text class="cls-1" transform="translate(185.81 228.86)">Canada Inc</text><path class="cls-2" d="M187.37,176.87v166c0,55.69-28.12,85-68.52,85A81.88,81.88,0,0,1,92,423.39,73,73,0,0,0,132,435.65c41.48,0,70.77-33.12,70.77-89.93V169.55Z" transform="translate(-49.41 -169.55)"/><path class="cls-2" d="M114.87,347.06V318.69L77.31,331.85V311l37.56-14.71V270.1L77.31,283.26V262.37l37.56-14.71v-39.5l-65.46,29.5V350.43c0,21.52,13.53,35.94,33.5,35.94S114.87,371.68,114.87,347.06Z" transform="translate(-49.41 -169.55)"/><path class="cls-2" d="M143.7,340.84V195.24l-14.86,7.14V343.06c0,37.94-16.2,52.36-42.6,52.36a81.45,81.45,0,0,1-22.42-4,52.81,52.81,0,0,0,32.41,11.3C124.19,402.74,143.7,383.45,143.7,340.84Z" transform="translate(-49.41 -169.55)"/><path class="cls-2" d="M173,343.51V182.39l-15.08,7.14V342.15c0,48.15-22.63,69.44-56.59,69.44-8.2,0-17.53-2-26.83-5.09,11.09,8.23,24.39,13.12,37.5,13.12C147.49,419.62,173,393.88,173,343.51Z" transform="translate(-49.41 -169.55)"/></svg>