<svg id="Layer_1" data-name="Layer 1" xmlns="http://www.w3.org/2000/svg" viewBox="0 0 459.22 343.64"><defs><style>.cls-1{fill:#cadff5;}.cls-2{fill:#3b73a9;}.cls-3{fill:#fd7c78;}.cls-4{fill:#015288;}.cls-5{opacity:0.5;}.cls-6{fill:#d64e5a;}.cls-7{fill:#b2304f;}.cls-8{fill:#01305a;}.cls-9{fill:#001336;}.cls-10{fill:#ededed;}.cls-11{fill:#fff;}.cls-12{fill:#fb9e82;}.cls-13{fill:#fc7972;}.cls-14{fill:#fdbeab;}.cls-15{fill:#375bc7;}</style></defs><g id="OBJECTS"><path class="cls-1" d="M221.92,182c-15.13-54.89-83.32-72.57-122.4-31.55q-.84.88-1.68,1.8c-56,60.9-29.56,211,87.36,249s238.54-31.43,245.37-93.52-47.11-81.61-130.82-64.24C252.45,253.29,231.34,216.14,221.92,182Z" transform="translate(-18.6 -86)"/><path class="cls-1" d="M74.89,311.77c-9.48-12.7-23.77-10.16-26.92,5.1-1,5-.81,11.34,1.74,19.17,9.72,29.82,29.44,38.07,39.47,18.88C95.37,343.07,84.28,324.36,74.89,311.77Z" transform="translate(-18.6 -86)"/><path class="cls-1" d="M436.6,313.14c-.6,11.33,9.63,17.86,19.4,12.19,3.22-1.87,6.28-5.06,8.69-10.25,9.14-19.77,1.07-34.52-14.95-30.66C439.81,286.79,437.17,301.91,436.6,313.14Z" transform="translate(-18.6 -86)"/><path class="cls-1" d="M56.31,218.89c-1.65,7.5-9.49,10-14.82,4.49a14.83,14.83,0,0,1-3.83-8.25c-2.43-14.55,5.49-22.73,15.26-17.34C59,201.12,58,211.46,56.31,218.89Z" transform="translate(-18.6 -86)"/><path class="cls-1" d="M322,128.28a4.53,4.53,0,0,1-4.51,4.52H221.06a4.52,4.52,0,0,1,0-9h4.56a11.76,11.76,0,0,1,19.14-3.64,16.34,16.34,0,0,1,18.82-7.36,18.67,18.67,0,0,1,34.49,3.77,11.77,11.77,0,0,1,15.79,5.27,12.27,12.27,0,0,1,.77,2h2.9A4.53,4.53,0,0,1,322,128.28Z" transform="translate(-18.6 -86)"/><path class="cls-1" d="M379.66,207.88a4.23,4.23,0,0,1-4.23,4.23H284.91a4.23,4.23,0,0,1,0-8.46h4.28a11,11,0,0,1,14.41-5.86,10.74,10.74,0,0,1,3.59,2.44,15.32,15.32,0,0,1,17.66-6.9,17.52,17.52,0,0,1,32.36,3.53A11,11,0,0,1,372,201.71a11.16,11.16,0,0,1,.76,1.94h2.72A4.24,4.24,0,0,1,379.66,207.88Z" transform="translate(-18.6 -86)"/><path class="cls-2" d="M402.17,139.16a6.37,6.37,0,1,1,6.36-6.38v0A6.38,6.38,0,0,1,402.17,139.16Zm0-10.73a4.37,4.37,0,1,0,4.36,4.38h0a4.37,4.37,0,0,0-4.36-4.37Z" transform="translate(-18.6 -86)"/><path class="cls-3" d="M425.07,161.48a6.37,6.37,0,1,1,6.36-6.38h0A6.38,6.38,0,0,1,425.07,161.48Zm0-10.73a4.37,4.37,0,1,0,4.36,4.38v0A4.37,4.37,0,0,0,425.07,150.75Z" transform="translate(-18.6 -86)"/><path class="cls-2" d="M432.93,182.15a1,1,0,0,1-1-1v-4.4a1,1,0,0,1,2,0v4.4A1,1,0,0,1,432.93,182.15Z" transform="translate(-18.6 -86)"/><path class="cls-2" d="M432.93,189.85a1,1,0,0,1-1-1v-4.4a1,1,0,0,1,2,0v4.4A1,1,0,0,1,432.93,189.85Z" transform="translate(-18.6 -86)"/><path class="cls-2" d="M439.11,183.8h-4a1,1,0,0,1,0-2h4a1,1,0,0,1,0,2Z" transform="translate(-18.6 -86)"/><path class="cls-2" d="M430.7,183.8h-3.95a1,1,0,0,1,0-2h3.95a1,1,0,0,1,0,2Z" transform="translate(-18.6 -86)"/><path class="cls-4" d="M397.8,157.49a1,1,0,0,1-1-1v-4.4a1,1,0,1,1,2,0v4.4A1,1,0,0,1,397.8,157.49Z" transform="translate(-18.6 -86)"/><path class="cls-4" d="M397.8,165.19a1,1,0,0,1-1-1v-4.4a1,1,0,0,1,2,0v4.4A1,1,0,0,1,397.8,165.19Z" transform="translate(-18.6 -86)"/><path class="cls-4" d="M404,159.14h-4a1,1,0,0,1,0-2h4a1,1,0,0,1,0,2Z" transform="translate(-18.6 -86)"/><path class="cls-4" d="M395.58,159.14h-4a1,1,0,0,1,0-2h4a1,1,0,1,1,0,2Z" transform="translate(-18.6 -86)"/><path class="cls-2" d="M98.1,124.53a6.37,6.37,0,1,1,6.38,6.36h0A6.38,6.38,0,0,1,98.1,124.53Zm2,0a4.37,4.37,0,1,0,4.37-4.37,4.37,4.37,0,0,0-4.37,4.37Z" transform="translate(-18.6 -86)"/><path class="cls-3" d="M72.55,148.78a6.37,6.37,0,1,1,6.38,6.36h0A6.38,6.38,0,0,1,72.55,148.78Zm2,0a4.37,4.37,0,1,0,4.37-4.37h0A4.37,4.37,0,0,0,74.55,148.78Z" transform="translate(-18.6 -86)"/><path class="cls-2" d="M59.33,157.71a1,1,0,0,0,1-1v-4.4a1,1,0,0,0-2,0v4.4A1,1,0,0,0,59.33,157.71Z" transform="translate(-18.6 -86)"/><path class="cls-2" d="M59.33,165.41a1,1,0,0,0,1-1V160a1,1,0,0,0-2,0v4.4a1,1,0,0,0,1,1Z" transform="translate(-18.6 -86)"/><path class="cls-2" d="M53.15,159.36h4a1,1,0,1,0,0-2h-4a1,1,0,0,0,0,2Z" transform="translate(-18.6 -86)"/><path class="cls-2" d="M61.55,159.36h4a1,1,0,1,0,0-2h-4a1,1,0,0,0,0,2Z" transform="translate(-18.6 -86)"/><path class="cls-4" d="M82.32,123.88a1,1,0,0,0,1-1v-4.4a1,1,0,0,0-2,0v4.4A1,1,0,0,0,82.32,123.88Z" transform="translate(-18.6 -86)"/><path class="cls-4" d="M82.32,131.58a1,1,0,0,0,1-1v-4.4a1,1,0,0,0-2,0v4.4A1,1,0,0,0,82.32,131.58Z" transform="translate(-18.6 -86)"/><path class="cls-4" d="M76.15,125.53H80.1a1,1,0,0,0,0-2H76.15a1,1,0,0,0,0,2Z" transform="translate(-18.6 -86)"/><path class="cls-4" d="M84.55,125.53h4a1,1,0,0,0,0-2h-4a1,1,0,1,0,0,2Z" transform="translate(-18.6 -86)"/><path class="cls-3" d="M332.39,147.74v18.41a4.4,4.4,0,0,1-4.41,4.41H294.55l-10.09,3.62a1.28,1.28,0,0,1-1.63-1.67l3.82-9.86V147.74a4.4,4.4,0,0,1,4.41-4.41H328A4.41,4.41,0,0,1,332.39,147.74Z" transform="translate(-18.6 -86)"/><g class="cls-5"><path class="cls-6" d="M325.35,153H294.68a1.22,1.22,0,0,1-1.22-1.22h0a1.21,1.21,0,0,1,1.21-1.21h30.68a1.21,1.21,0,0,1,1.21,1.21h0A1.22,1.22,0,0,1,325.35,153Z" transform="translate(-18.6 -86)"/><path class="cls-6" d="M325.35,157.85H294.68a1.22,1.22,0,0,1-1.22-1.22h0a1.22,1.22,0,0,1,1.22-1.22h30.67a1.22,1.22,0,0,1,1.21,1.22h0A1.22,1.22,0,0,1,325.35,157.85Z" transform="translate(-18.6 -86)"/><path class="cls-6" d="M325.35,162.75H294.68a1.22,1.22,0,0,1-1.22-1.22h0a1.22,1.22,0,0,1,1.22-1.22h30.67a1.22,1.22,0,0,1,1.21,1.22h0A1.22,1.22,0,0,1,325.35,162.75Z" transform="translate(-18.6 -86)"/></g><path class="cls-1" d="M204.83,101.92a.62.62,0,0,0,.33,0c1.22-.32,1.93-.45,1.94-.45a.68.68,0,1,0-.25-1.34h0s-.75.14-2,.47a.68.68,0,0,0,0,1.32Z" transform="translate(-18.6 -86)"/><path class="cls-1" d="M165.37,133.05c-.63,1.15-1.24,2.35-1.81,3.55a.67.67,0,0,1-.78.37h-.13a.68.68,0,0,1-.32-.91h0c.58-1.23,1.2-2.45,1.85-3.63a.68.68,0,0,1,.92-.27A.69.69,0,0,1,165.37,133.05Z" transform="translate(-18.6 -86)"/><path class="cls-1" d="M162,140.26c-.49,1.22-1,2.48-1.38,3.75a.7.7,0,0,1-.81.44h-.05a.67.67,0,0,1-.44-.84v0c.44-1.29.91-2.57,1.41-3.82a.68.68,0,0,1,.88-.37A.67.67,0,0,1,162,140.26Z" transform="translate(-18.6 -86)"/><path class="cls-1" d="M156.2,160.16a.67.67,0,0,1-.5-.75c.17-1.35.37-2.7.6-4a.69.69,0,0,1,.79-.55.66.66,0,0,1,.55.77v0c-.22,1.29-.43,2.62-.6,4a.67.67,0,0,1-.74.59h0Z" transform="translate(-18.6 -86)"/><path class="cls-1" d="M158.93,147a.66.66,0,0,1,.47.82h0q-.26.9-.48,1.8c-.17.68-.34,1.39-.49,2.08a.69.69,0,0,1-.82.52h0a.68.68,0,0,1-.5-.81c.16-.7.33-1.42.51-2.11s.31-1.22.48-1.83a.68.68,0,0,1,.82-.48Z" transform="translate(-18.6 -86)"/><path class="cls-1" d="M167.39,129.61a.68.68,0,0,1-.74.3.66.66,0,0,1-.19-.09.68.68,0,0,1-.21-.94h0c.72-1.14,1.49-2.28,2.28-3.37a.68.68,0,0,1,1.1.8C168.86,127.38,168.1,128.49,167.39,129.61Z" transform="translate(-18.6 -86)"/><path class="cls-1" d="M201.35,103.07c-1.24.43-2.5.9-3.74,1.41a.75.75,0,0,1-.42,0,.71.71,0,0,1-.46-.4.67.67,0,0,1,.35-.88h0c1.26-.52,2.55-1,3.81-1.44a.69.69,0,0,1,.87.42.68.68,0,0,1-.36.88Z" transform="translate(-18.6 -86)"/><path class="cls-1" d="M190.42,108a.67.67,0,0,1-.5.07.7.7,0,0,1-.42-.33.65.65,0,0,1,.23-.9l0,0c1.18-.66,2.4-1.3,3.61-1.89a.68.68,0,1,1,.6,1.23h0A35.19,35.19,0,0,0,190.42,108Z" transform="translate(-18.6 -86)"/><path class="cls-1" d="M177.54,117.34a.69.69,0,0,1-.63.17.63.63,0,0,1-.33-.2.68.68,0,0,1,0-1l0,0c1-.92,2-1.83,3.06-2.69a.68.68,0,0,1,1.1.8.74.74,0,0,1-.23.2C179.51,115.55,178.5,116.44,177.54,117.34Z" transform="translate(-18.6 -86)"/><path class="cls-1" d="M183.69,112.26a.66.66,0,0,1-.56.11.68.68,0,0,1-.5-.82.67.67,0,0,1,.26-.39c1.09-.79,2.23-1.56,3.37-2.29a.68.68,0,0,1,1,.09.67.67,0,0,1-.09,1,.38.38,0,0,1-.13.09C185.87,110.73,184.76,111.49,183.69,112.26Z" transform="translate(-18.6 -86)"/><path class="cls-1" d="M172.07,123.15a.69.69,0,0,1-.69.23.82.82,0,0,1-.26-.14.67.67,0,0,1-.1-.94h0c.86-1.05,1.77-2.07,2.69-3.06a.68.68,0,0,1,1,0l0,0a.67.67,0,0,1,.05,1l-.05,0C173.81,121.13,172.92,122.13,172.07,123.15Z" transform="translate(-18.6 -86)"/><polygon class="cls-3" points="186.9 11.32 185.53 0 221.53 5.5 186.9 11.32"/><polygon class="cls-6" points="221.53 5.5 188.27 14.2 188.18 14.23 186.51 16.27 186.9 11.32 221.53 5.5"/><polygon class="cls-7" points="186.51 16.27 189.5 16.23 188.18 14.23 186.51 16.27"/><polygon class="cls-3" points="192.37 13.13 188.18 14.23 194.99 24.55 221.53 5.5 192.37 13.13"/><path class="cls-2" d="M129.08,420.36c-12.75-12.95-38.82-41.51-55.4-73.83C49.28,299,24.81,303.22,20,320,9.14,358.08,63.78,399,97.93,420.36Z" transform="translate(-18.6 -86)"/><path class="cls-4" d="M118.93,420.36c-19.37-15.2-35.73-32.47-47.11-45.72a363.26,363.26,0,0,1-26.31-34.33,1.19,1.19,0,0,0-2,1.28A366.36,366.36,0,0,0,70,376.14a348.62,348.62,0,0,0,45.14,44.22Z" transform="translate(-18.6 -86)"/><path class="cls-4" d="M127,404.58c-5.72-11.42-16.57-35.35-20.6-59.73-6-36.43-23-38.8-29.71-28.76-18.41,27.59,25.72,78.34,39.8,93.36Z" transform="translate(-18.6 -86)"/><path class="cls-8" d="M123,406.44c-10.75-15.09-18.68-31.46-23.75-43.5a250.37,250.37,0,0,1-10.06-28.13.81.81,0,0,0-1.57.43,253.56,253.56,0,0,0,10.12,28.31c5.08,12.06,13,28.44,23.77,43.58Z" transform="translate(-18.6 -86)"/><path class="cls-2" d="M377.78,303.49c10.91-12.79,34.61-42.62,48.48-75.52,19.9-47.2,43.59-44.9,49.38-29.18,15,40.66-51.5,91.08-79.23,109.94Z" transform="translate(-18.6 -86)"/><path class="cls-4" d="M384.34,305.34c19.2-16.79,35.05-36.14,45.71-50.64A345.1,345.1,0,0,0,452.73,220a1.13,1.13,0,0,1,1.53-.44,1.12,1.12,0,0,1,.44,1.52A350.51,350.51,0,0,1,431.89,256c-10.54,14.33-26.1,33.36-45,50.06Z" transform="translate(-18.6 -86)"/><path class="cls-4" d="M379.5,287.28c4.65-11.33,13.3-35,15.39-58.57,3.13-35.24,19.2-38.73,26.33-29.61,19.58,25-19,76.71-31.33,92.07Z" transform="translate(-18.6 -86)"/><path class="cls-8" d="M383.46,288.76c9.19-15.19,15.59-31.4,19.57-43.27a237.37,237.37,0,0,0,7.59-27.61.78.78,0,0,1,.94-.58.76.76,0,0,1,.59.88A241,241,0,0,1,404.51,246c-4,11.89-10.39,28.11-19.57,43.35Z" transform="translate(-18.6 -86)"/><path class="cls-2" d="M445,340.63c3.42-18.09,10-34.59,17.45-27.78s-4.37,35-22,50.62l-4.73,6.75c12.67-11.61,33.06-18.53,38.6-12s-8.49,9.89-21.79,10.84c-10.12.73-16.58,3.52-19.71,5.26L410.44,406.2c20.12-18.32,52.32-29.21,61.08-18.84s-13.47,15.69-34.57,17.2c-15.94,1.14-26.16,5.52-31.17,8.29l-4.46,6.35c-1.23-.6-2.45-1.21-3.66-1.82l26.62-37.93a52.12,52.12,0,0,0-2.14-16.28c-3.63-12.82-5.21-27.13,2.79-24.17,6.94,2.57,8.2,18.93,4.18,33.57l9.21-13.12C440.46,354.92,443.55,348.44,445,340.63Z" transform="translate(-18.6 -86)"/><path class="cls-2" d="M92.44,195.94c-1.8-15-6.27-28.83-12.75-23.67S81.36,201.13,95,214.86l3.51,5.78c-9.74-10.18-26-17-30.91-11.9s6.4,8.55,17.22,10.06c8.23,1.14,13.36,3.78,15.83,5.37l16.56,27.29c-15.51-16.08-41.21-26.74-49-18.74s10.16,13.57,27.33,15.95c13,1.81,21.09,5.94,25,8.48l3.3,5.44q1.55-.63,3.09-1.29l-19.7-32.47a42.8,42.8,0,0,1,2.64-13.19c3.67-10.29,5.74-21.9-1-19.92-5.82,1.72-7.75,15-5.26,27.22l-6.81-11.23A62.56,62.56,0,0,1,92.44,195.94Z" transform="translate(-18.6 -86)"/><path class="cls-8" d="M243.35,414.51c.18-2.91.34-5.68.49-8.25.62-10.49,1-17.66,1-17.66l-4.11-.18-2.32-.1-27.94-1.25s-.51,8-1.11,19.78c-.12,2.41-.25,5-.38,7.66Z" transform="translate(-18.6 -86)"/><path class="cls-9" d="M240.75,388.42l4.11.18s-.4,7.17-1,17.66a249.28,249.28,0,0,1-34.46.59c.6-11.76,1.11-19.78,1.11-19.78l27.94,1.25Z" transform="translate(-18.6 -86)"/><path class="cls-9" d="M239.28,414.51c.65-11.21,1.18-20.82,1.47-26.09l-2.32-.1c-.29,5.29-.82,14.94-1.47,26.19Z" transform="translate(-18.6 -86)"/><path class="cls-8" d="M252.36,414.51h34.35c-.13-2.69-.26-5.25-.38-7.66-.6-11.76-1.11-19.78-1.11-19.78l-27.94,1.25-2.32.1-4.11.18s.4,7.17,1,17.66C252,408.83,252.18,411.6,252.36,414.51Z" transform="translate(-18.6 -86)"/><path class="cls-9" d="M255,388.42l-4.11.18s.4,7.17,1,17.66a249.28,249.28,0,0,0,34.46.59c-.6-11.76-1.11-19.78-1.11-19.78l-27.94,1.25Z" transform="translate(-18.6 -86)"/><path class="cls-9" d="M258.75,414.51c-.65-11.25-1.18-20.9-1.47-26.19l-2.32.1c.29,5.27.82,14.88,1.47,26.09Z" transform="translate(-18.6 -86)"/><path class="cls-2" d="M289.19,383.19v7.69a166.91,166.91,0,0,1-23.45,4.57l-.62.07-1,.12h-.26c-1.36.14-2.71.28-4.07.39-2.81.23-6.91.43-9.73.51l-2.18-13-2.19,13c-1.61,0-4.44-.08-6.05-.15l-1.77-.1-1.59-.09-.72-.05-1.34-.1a163.38,163.38,0,0,1-29.61-5.2c-.06-3.89-.11-11.81-.12-22v-1.7c0-11.27,0-25.1.17-39.34V314.34l.09-6.11c.48-28.27,1.43-54.26,3.25-60.87a4.87,4.87,0,0,1,.53-1.32,6.78,6.78,0,0,1,.7-.9A16.42,16.42,0,0,1,210.4,244c3-2.78,8.28-6,13.61-9.1l1.86-1.06c.1,0,14.48-4.9,14.57-5l15,1c1.81,1.07,16,5.9,17.78,7l1.53,1c4.09,2.64,7.57,5.25,9.09,7.48,2.19,3.22,3.51,32.09,4.28,63.5,0,.72,0,1.44.05,2.17.08,3.32.15,6.66.22,10s.12,6.58.18,9.85c.09,5.34.16,10.6.23,15.67v1.72c.06,4.94.1,9.68.14,14.1V364c0,6.64.08,12.52.09,17.24h0Z" transform="translate(-18.6 -86)"/><polygon class="cls-10" points="229.96 165.48 238.71 239.33 229.24 257.61 219.52 239.33 228.8 165.5 229.96 165.48"/><polygon class="cls-11" points="235.39 162.54 229.3 172.3 223.03 162.63 229.21 150.82 235.39 162.54"/><path class="cls-4" d="M239.17,227.65s-5.41-.06-7.25,4.3c0,0-.55,13.39,9.71,16.68l6.18-11.81S240.11,234.44,239.17,227.65Z" transform="translate(-18.6 -86)"/><path class="cls-4" d="M255.88,227.65a8.86,8.86,0,0,1,6.47,5s1.88,12.65-8.37,15.94l-6.17-11.81S254.94,234.44,255.88,227.65Z" transform="translate(-18.6 -86)"/><path class="cls-4" d="M250,351.22a2.19,2.19,0,1,1-2.19-2.19h0A2.19,2.19,0,0,1,250,351.22Z" transform="translate(-18.6 -86)"/><path class="cls-4" d="M250,368.64a2.19,2.19,0,1,1-2.2-2.18h0A2.2,2.2,0,0,1,250,368.64Z" transform="translate(-18.6 -86)"/><path class="cls-4" d="M258.55,272.53H277v11.3a8.8,8.8,0,0,1-8.79,8.79h-.89a8.8,8.8,0,0,1-8.79-8.79h0v-11.3Z" transform="translate(-18.6 -86)"/><path class="cls-8" d="M227.1,190.48s.34-8-.74-11.21c-1.91-5.64-1-10,3.23-11.33,4.84-1.54.86-4.91,5.52-6.38s5.8,2.5,8.63,1,3.79-2.6,6.59-3c4.26-.57,4.53,3.48,7.47,2.94,4.88-.9,7.61,2.25,8.6,5.44s.24,4.1,2.5,5c3.35,1.39,2.74,6.92.9,9.25s-1.54,3.25-1.67,6.94S227.1,190.48,227.1,190.48Z" transform="translate(-18.6 -86)"/><path class="cls-12" d="M266,197.64s3.53-4.71,6.16-.82-1.09,15.39-7.51,12.58Z" transform="translate(-18.6 -86)"/><path class="cls-13" d="M266.09,205.85a.54.54,0,0,0,.52-.39,8.34,8.34,0,0,1,4.71-5,.54.54,0,0,0,.31-.7h0a.52.52,0,0,0-.66-.32h0a9.3,9.3,0,0,0-5.37,5.72.52.52,0,0,0,.35.66h0A.38.38,0,0,0,266.09,205.85Z" transform="translate(-18.6 -86)"/><path class="cls-13" d="M269.8,204.06a.51.51,0,0,0,.29-.08.54.54,0,0,0,.17-.74h0a4.93,4.93,0,0,0-2-1.65.55.55,0,0,0-.45,1,3.81,3.81,0,0,1,1.57,1.24A.56.56,0,0,0,269.8,204.06Z" transform="translate(-18.6 -86)"/><path class="cls-12" d="M229.67,197.64s-3.53-4.71-6.16-.82,1.09,15.39,7.52,12.58Z" transform="translate(-18.6 -86)"/><path class="cls-13" d="M229.62,205.85a.55.55,0,0,1-.52-.39,8.34,8.34,0,0,0-4.71-5,.54.54,0,0,1,.28-1l.11,0a9.38,9.38,0,0,1,5.37,5.72.54.54,0,0,1-.37.67h0A.38.38,0,0,1,229.62,205.85Z" transform="translate(-18.6 -86)"/><path class="cls-13" d="M225.91,204.06a.51.51,0,0,1-.29-.08.55.55,0,0,1-.16-.75h0a4.87,4.87,0,0,1,2-1.65.54.54,0,0,1,.71.27h0a.55.55,0,0,1-.27.72,4,4,0,0,0-1.57,1.24A.58.58,0,0,1,225.91,204.06Z" transform="translate(-18.6 -86)"/><path class="cls-14" d="M239.17,219.15v11.43s3.41,5.82,8,6.22,8.69-5,8.69-5V220Z" transform="translate(-18.6 -86)"/><path class="cls-12" d="M239.17,219.15v5.07c3.09,3.44,8.58,4.29,16.71,3.09V220Z" transform="translate(-18.6 -86)"/><path class="cls-14" d="M227.12,189.8a111.1,111.1,0,0,0,1.48,14.44h0c.21,1.08.45,2.1.7,3,.16.54.32,1.1.51,1.68,2.71,8.5,9,20.8,24.76,15.17,6.65-2.37,10.11-9.23,11.87-16.67.1-.44.2-.88.28-1.31s.12-.55.17-.82l.08-.4v-.14h0a81.14,81.14,0,0,0,1.12-15.64,12,12,0,0,0-6-10.11c-9.93-5.64-20.43-3.53-27.33-.88A11.89,11.89,0,0,0,227.12,189.8Z" transform="translate(-18.6 -86)"/><path class="cls-8" d="M228.6,204.24h0c.1.37.66,2.41,1.21,4.7,2.71,8.5,9,20.8,24.76,15.17,6.65-2.37,10.11-9.23,11.87-16.67.1-.44.2-.88.28-1.31.06-.28.12-.55.17-.82l.08-.4v-.14h0l-2.32-.47a18,18,0,0,1-2.63,6.11c-2-4.7-11.92-1.58-11.92-1.58h0a6.27,6.27,0,0,1-3.77,0s-9.84-3.26-11.87,1.23a63.59,63.59,0,0,1-3.43-6l-2.42.18ZM248.21,211c11.26-1.52,9.49,4.54,9.49,4.54a19.06,19.06,0,0,1-3.17,2.41,12.9,12.9,0,0,1-6.63,1.8c-1.72-.07-2.2.28-6.57-2.08A10.86,10.86,0,0,1,239,215.9h0C238.82,214.71,236.92,209.05,248.21,211Z" transform="translate(-18.6 -86)"/><path class="cls-8" d="M238,198.07c0,1.22.63,2.2,1.41,2.2s1.4-1,1.4-2.2-.63-2.21-1.4-2.21S238,196.85,238,198.07Z" transform="translate(-18.6 -86)"/><path class="cls-8" d="M255.56,198.07c0,1.22.63,2.2,1.41,2.2s1.4-1,1.4-2.2-.63-2.21-1.4-2.21S255.56,196.85,255.56,198.07Z" transform="translate(-18.6 -86)"/><path class="cls-8" d="M234.41,190.62s5.8-2.3,10.27-.37l-.45,2.49s-6.56-.56-9.86.78A4.25,4.25,0,0,1,234.41,190.62Z" transform="translate(-18.6 -86)"/><path class="cls-8" d="M262,190.63s-5.84-2.31-10.35-.37l.45,2.51s6.61-.56,9.94.79A4.34,4.34,0,0,0,262,190.63Z" transform="translate(-18.6 -86)"/><path class="cls-12" d="M247.67,207.94a6,6,0,0,1-2-.41.55.55,0,1,1,.22-1.08.64.64,0,0,1,.19.08,3.28,3.28,0,0,0,2.18.21.61.61,0,0,0,.27-.51c.19-1.9-.33-8.25-.33-8.32a.54.54,0,0,1,.5-.58h0a.53.53,0,0,1,.58.48h0a80.79,80.79,0,0,1,.33,8.52,1.66,1.66,0,0,1-.79,1.33A2.3,2.3,0,0,1,247.67,207.94Z" transform="translate(-18.6 -86)"/><path class="cls-11" d="M254.59,212.08c-.41,2.07-1.78,5.89-6.4,5.89s-5.92-3.49-6.37-5.89Z" transform="translate(-18.6 -86)"/><path class="cls-8" d="M227.12,189.8a111.1,111.1,0,0,0,1.48,14.44l2.43-.18s-.59-3.75-.86-6.19-.74-7,1.35-7.58.86-5.78,3.75-8,9.37-2.89,13.64-.26,9.08-.2,11,.26,4.65,3.16,3.92,5.7,1.45,4.07,2,6.69-1.15,9.68-1.15,9.68l2.32.47a81.14,81.14,0,0,0,1.12-15.64,11.91,11.91,0,0,0-6-10.19c-9.95-5.64-20.44-3.54-27.34-.88A11.89,11.89,0,0,0,227.12,189.8Z" transform="translate(-18.6 -86)"/><path class="cls-2" d="M211.73,242.89s-14.28,9.53-23.46,12.36L194.41,281s.85-.35,11.27-4.78Z" transform="translate(-18.6 -86)"/><path class="cls-2" d="M281.75,242.89s27.3,14,36.47,16.82c-3.51,6.34-5.75,12.22-8.74,20.71A206.16,206.16,0,0,1,286,272.53Z" transform="translate(-18.6 -86)"/><path class="cls-15" d="M392.67,414.68c-.51-9.56-.91-15.8-.91-15.8l-28,1.24-2.33.11-4.12.18s.32,5.65.82,14.27Z" transform="translate(-18.6 -86)"/><path class="cls-8" d="M392.67,414.68c-.51-9.56-.91-15.8-.91-15.8l-28,1.24-2.33.11-4.12.18s.32,5.65.82,14.27Z" transform="translate(-18.6 -86)"/><path class="cls-9" d="M364.55,414.68c-.34-6.12-.62-11.21-.8-14.55l-2.33.1c.18,3.33.46,8.37.81,14.45Z" transform="translate(-18.6 -86)"/><path class="cls-8" d="M349.3,414.68c.5-8.62.82-14.27.82-14.27l-4.48-.2-2.32-.1-27.67-1.23s-.3,4.79-.72,12.4c-.06,1.07-.12,2.21-.18,3.4Z" transform="translate(-18.6 -86)"/><path class="cls-9" d="M344.84,414.68c.34-6.09.62-11.14.8-14.47l-2.32-.1c-.18,3.35-.46,8.44-.81,14.57Z" transform="translate(-18.6 -86)"/><path class="cls-8" d="M331.81,194.94c0,12.63,7.78,21.33,20.4,21.33s21.43-9.36,21.43-22a27.21,27.21,0,0,0-1.66-9.62c-.06-.17-.13-.34-.2-.5-.13-.33-.27-.66-.42-1a15.89,15.89,0,0,0-.72-1.43c-3.29-5.91-9.19-9.68-17.11-9.68C338.39,172.09,331.81,182.31,331.81,194.94Z" transform="translate(-18.6 -86)"/><path class="cls-8" d="M339.49,175.46a13.25,13.25,0,1,0,13.26-13.24h0A13.24,13.24,0,0,0,339.49,175.46Z" transform="translate(-18.6 -86)"/><path class="cls-12" d="M334.65,200.38s-3.51-4.68-6.12-.81,1.08,15.29,7.47,12.5Z" transform="translate(-18.6 -86)"/><path class="cls-13" d="M334.6,208.54a.56.56,0,0,1-.52-.39,8.32,8.32,0,0,0-4.68-5,.56.56,0,0,1-.31-.7.54.54,0,0,1,.7-.31h0a9.28,9.28,0,0,1,5.33,5.68.54.54,0,0,1-.37.67h0Z" transform="translate(-18.6 -86)"/><path class="cls-13" d="M330.92,206.76a.53.53,0,0,1-.55-.51.46.46,0,0,1,.09-.32,5,5,0,0,1,2-1.63.55.55,0,0,1,.44,1,3.87,3.87,0,0,0-1.56,1.24A.51.51,0,0,1,330.92,206.76Z" transform="translate(-18.6 -86)"/><path class="cls-12" d="M370.8,200.38s3.51-4.68,6.12-.81-1.08,15.29-7.47,12.5Z" transform="translate(-18.6 -86)"/><path class="cls-13" d="M370.85,208.54a.56.56,0,0,0,.52-.39,8.32,8.32,0,0,1,4.68-5,.54.54,0,0,0,.31-.7h0a.53.53,0,0,0-.68-.31h0a9.27,9.27,0,0,0-5.34,5.68.55.55,0,0,0,.37.67Z" transform="translate(-18.6 -86)"/><path class="cls-13" d="M374.54,206.76a.51.51,0,0,0,.29-.08.55.55,0,0,0,.16-.75,4.89,4.89,0,0,0-2-1.63.55.55,0,0,0-.44,1,3.87,3.87,0,0,1,1.56,1.24A.53.53,0,0,0,374.54,206.76Z" transform="translate(-18.6 -86)"/><path class="cls-14" d="M361.36,221.76v11.36s-3.39,5.79-8,6.18-8.64-5-8.64-5V222.56Z" transform="translate(-18.6 -86)"/><path class="cls-12" d="M361.36,221.76v5c-3.07,3.41-8.53,4.26-16.61,3.07v-7.31Z" transform="translate(-18.6 -86)"/><path class="cls-14" d="M332.58,195.48v.63a16.19,16.19,0,0,0,.06,1.69v.88a4.44,4.44,0,0,0,.06.89v.1l.06.8a68.93,68.93,0,0,0,.86,6.87v.16c.07.37.15.75.22,1.13,1.63,8,5.07,15.6,12.13,18.12,16.74,6,22.72-8.38,25.12-16.75.21-.76.41-1.59.59-2.47a4.08,4.08,0,0,1,.11-.59v-.16a110.52,110.52,0,0,0,1.45-14.07v-.13A11.82,11.82,0,0,0,365.77,181c-6.87-2.64-17.3-4.73-27.18.87a11.86,11.86,0,0,0-6,10.09C332.56,193,332.55,194.21,332.58,195.48Z" transform="translate(-18.6 -86)"/><path class="cls-8" d="M333.67,207.34v.16c1.53,8.37,5,16.61,12.35,19.25,16.74,6,22.72-8.38,25.12-16.75.26-.93.5-2,.7-3.06v-.16l-1.8-.12a63.23,63.23,0,0,1-3.5,6.15c-2.08-4.58-12.13-1.25-12.13-1.25a6.45,6.45,0,0,1-2,.3,6.37,6.37,0,0,1-1.89-.29h-.05s-10.18-3.19-12.18,1.61a18.25,18.25,0,0,1-2.69-6.24Zm18.87,6.39c11.53-2,9.58,3.8,9.39,5h0a11.19,11.19,0,0,1-2.37,1.79c-4.47,2.42-4.95,2.06-6.71,2.13a13.25,13.25,0,0,1-6.78-1.84,19.27,19.27,0,0,1-3.23-2.46S341,212.18,352.54,213.73Z" transform="translate(-18.6 -86)"/><path class="cls-8" d="M345.55,201.86c0,1.21-.63,2.2-1.4,2.2s-1.39-1-1.39-2.2.62-2.2,1.39-2.2S345.55,200.65,345.55,201.86Z" transform="translate(-18.6 -86)"/><path class="cls-8" d="M362,201.81c0,1.22-.62,2.2-1.39,2.2s-1.4-1-1.4-2.2.63-2.19,1.4-2.19S362,200.6,362,201.81Z" transform="translate(-18.6 -86)"/><path class="cls-8" d="M365.16,194.27s-4.41-1.74-7.8-.28l.34,1.89s5-.42,7.49.59A3.32,3.32,0,0,0,365.16,194.27Z" transform="translate(-18.6 -86)"/><path class="cls-8" d="M339.49,194.27s4.41-1.74,7.8-.28l-.34,1.89s-5-.42-7.49.59A3.32,3.32,0,0,1,339.49,194.27Z" transform="translate(-18.6 -86)"/><path class="cls-12" d="M353.4,211.06a5.5,5.5,0,0,0,2-.41.54.54,0,0,0-.41-1,3.22,3.22,0,0,1-2.16.21.6.6,0,0,1-.27-.51,81.35,81.35,0,0,1,.33-8.26.54.54,0,0,0-.5-.58h0a.53.53,0,0,0-.58.48h0a79.65,79.65,0,0,0-.32,8.46,1.65,1.65,0,0,0,.78,1.32A2.26,2.26,0,0,0,353.4,211.06Z" transform="translate(-18.6 -86)"/><path class="cls-11" d="M345.67,215.19c.89,3.11,3.44,6.22,7,6.26s6.06-3.15,7-6.26Z" transform="translate(-18.6 -86)"/><path class="cls-8" d="M332.58,195.48v.63a16.1,16.1,0,0,0,.06,1.69v.88a4.44,4.44,0,0,0,.06.89v.1l.06.8a68.93,68.93,0,0,0,.86,6.87v.16c.07.37.15.75.22,1.13l1.86-1.39c-.12-1.2-1.07-9.08-.92-9.83.52-2.61,3.65-5.4,2.92-7.91s-1.79-5.77.17-6.22,10-.53,15-.36,12.14-.81,15,1.45-5.38,6.74,1,8.7c2,.62,1.32,11.13,1.06,13.59l1.73.87a4.08,4.08,0,0,1,.11-.59v-.16a110.52,110.52,0,0,0,1.45-14.07v-.13A11.8,11.8,0,0,0,365.77,181c-6.87-2.64-17.3-4.73-27.18.87a11.86,11.86,0,0,0-6,10.09C332.56,193,332.55,194.21,332.58,195.48Z" transform="translate(-18.6 -86)"/><path class="cls-3" d="M361.7,233.36a57,57,0,0,0,5.84,3.57l4.28,2.29c2.33,1.22,4.81,2.52,7.27,3.85h0c3.64,2,7.22,4,10.2,5.93a26.35,26.35,0,0,1,6.5,5.4c1.68,2.33,2.77,17.38,3.47,37.18,0,.69.05,1.4.08,2.11V294c0,.72.05,1.46.08,2.2.06,2.23.13,4.5.19,6.82v2.58c.07,2.83.13,5.72.19,8.64,0,2,.08,4,.11,6.05.62,35.3.47,73.6.32,84a195.71,195.71,0,0,1-22.89,4.37h0c-2,.25-4,.48-6,.67l-2,.18c-3.58.3-7.16.51-10.73.61q-8.87.25-17.74-.35-6.09-.42-12.19-1.23a200.23,200.23,0,0,1-22.12-4.25c-.13-12.42.16-65.51,1.64-105.22,0-.64.05-1.27.08-1.9.88-22.87,2.18-40.91,4-43.46,2.24-3.06,8.3-6.84,14.71-10.44,2.6-1.47,5.27-2.91,7.76-4.25,4.11-2.22,7.75-4.21,9.85-5.68h0s4.07,6.4,8.65,6c4.17-.36,7.42-5.3,8-6.18Z" transform="translate(-18.6 -86)"/><path class="cls-6" d="M377.81,379.51h0c-15.38-.07-28.5-7.07-36.8-12.92a84.9,84.9,0,0,1-14.48-12.82.74.74,0,1,1,1.14-.95h0a83,83,0,0,0,14.22,12.58c8.11,5.72,20.95,12.6,35.92,12.6a.74.74,0,0,1,0,1.48Z" transform="translate(-18.6 -86)"/><path class="cls-6" d="M361.79,384.73c-13.35,0-26.65-7.6-27.25-8a.76.76,0,0,1-.32-1,.74.74,0,0,1,1-.31l.06,0c.15.09,15.81,9,29.69,7.59a.74.74,0,0,1,.15,1.47A31,31,0,0,1,361.79,384.73Z" transform="translate(-18.6 -86)"/><path class="cls-6" d="M341.67,258.62a.74.74,0,0,1-.14-1.46c18.75-3.56,24.4-15.62,24.45-15.74a.74.74,0,1,1,1.35.61h0c-.24.52-6,12.88-25.52,16.58Z" transform="translate(-18.6 -86)"/><path class="cls-6" d="M369.45,276.81h18.48v11.3a8.8,8.8,0,0,1-8.79,8.79h-.89a8.8,8.8,0,0,1-8.79-8.79h0v-11.3Z" transform="translate(-18.6 -86)"/><path class="cls-14" d="M282.7,414.68v-.12c-1.42-8.4,2.62-16,4.37-15.77s-1.45,9.18.11,12.4,3.55-3,5.55-6.83,2-12.53,1-18.67S303.9,342.3,304,331.5l1.36-4.58,5-16.76L318,283.92s-4.65-19.86-12.49-18.16c0,0-4.15,13.84-8.59,29.44l-2.27,8.05c-3.16,11.31-6.13,22.48-7.51,29.11-3.65,17.5-3.93,53.87-3.93,53.87s-6.44,13.36-6.59,19.31a29.09,29.09,0,0,0,1.64,9.14Z" transform="translate(-18.6 -86)"/><path class="cls-12" d="M294.68,303.25l10.63,23.67,5-16.76L297,295.2Z" transform="translate(-18.6 -86)"/><path class="cls-3" d="M294.16,296.19c4.66,8,9.4,15.94,14.12,23.9,1.55-5.2,3.16-10.2,4.67-14.8h0q.9-2.76,1.76-5.31a.11.11,0,0,1,0-.08c.19-.6.38-1.18.58-1.76h0c2.25-6.82,4-12.23,4.5-15.39,1.34-8.5-1.81-23.58-6.48-27.86l-.54-.41c-.3-.18-.41-.45-.75-.1a46.11,46.11,0,0,0-7.44,12.2l-.79,2C301,276,297.42,285.62,294.16,296.19Z" transform="translate(-18.6 -86)"/><path class="cls-6" d="M307.57,324.79c1.53-6.35,3.47-13.42,5.38-19.5h0c.59-1.88,1.18-3.67,1.75-5.31v-.08c.18-.52.37-1,.54-1.51a1,1,0,0,0,0-.25h0a.73.73,0,0,0-1.41-.24c-2,5.35-4.28,13.05-6.27,20.61C307.63,320.57,307.6,322.68,307.57,324.79Z" transform="translate(-18.6 -86)"/><path class="cls-6" d="M393.35,298.11h0a1,1,0,0,0,0,.25c.18.49.35,1,.53,1.5V300c.57,1.64,1.16,3.42,1.76,5.3h0c1.46,4.66,2.94,9.9,4.24,14.95q0-3-.11-6c-1.69-6.1-3.53-12-5.11-16.33a.72.72,0,0,0-.92-.43h0A.7.7,0,0,0,393.35,298.11Z" transform="translate(-18.6 -86)"/><path class="cls-14" d="M428.37,314.69h0c-4.11-8.77-32.31-59.79-32.31-59.79-5.32,3.17,3.68,53.36,3.68,53.36l11.19,28.56A11.7,11.7,0,0,0,426,343.63a10.8,10.8,0,0,0,1.72-.81l.32-.18C438.84,336.21,428.37,314.69,428.37,314.69Z" transform="translate(-18.6 -86)"/><path class="cls-3" d="M396.06,254.9l26.06,37.27s-10.36,22.58-22.26,21.73C399.86,313.9,385.2,262.55,396.06,254.9Z" transform="translate(-18.6 -86)"/><polygon class="cls-8" points="410.43 205.28 410.1 209.05 409.54 215.4 409.43 216.62 408.96 222.02 408.45 227.89 408.42 228.17 407.84 234.91 407.32 240.91 406.67 248.35 385.98 248.35 385.82 246.65 385.2 239.41 384.82 235.04 384.19 227.89 384.18 227.78 383.8 223.42 383.21 216.62 383.17 216.12 382.79 211.79 382.22 205.28 410.43 205.28"/><polygon class="cls-11" points="409.43 216.62 408.96 222.02 408.45 227.89 384.19 227.89 384.18 227.78 383.8 223.42 383.21 216.62 409.43 216.62"/><rect class="cls-4" x="380.77" y="199.77" width="31.1" height="5.51"/><path class="cls-8" d="M403.19,281.09h23.46a1.48,1.48,0,0,1,1.48,1.48h0v3.2H401.72v-3.2A1.49,1.49,0,0,1,403.19,281.09Z" transform="translate(-18.6 -86)"/><path class="cls-14" d="M429.73,295.22a65.69,65.69,0,0,0-9.54,1.58c-2.85.66-9.05,4.4-6.41,5.78,2.09,1.08,11.48-1.54,13.34-.69,0,0-4.44.91-8.22,1.49-3.42.53-8.71,2.53-6.65,3.62s6.81.61,8.55.65c2.3.06,5.22,0,5.22,0a73.3,73.3,0,0,0-8,1.92c-2,.6-7.7,1.18-5.89,3.76.92,1.3,8.64.36,12.52.71,0,0-7.15,1.21-9.22,3.15-1.64,1.54.6,1.75,3.48,2a60.4,60.4,0,0,0,7.12,0c2.26,0,6.06-1.6,6.14-3.92s-1.21-3.28-.81-4.74,1.34-3.68.81-5a5.28,5.28,0,0,1,.16-4C432.86,299.88,431.91,295.9,429.73,295.22Z" transform="translate(-18.6 -86)"/><path class="cls-11" d="M355,202.67a6.73,6.73,0,1,1,6.74,6.72h0A6.74,6.74,0,0,1,355,202.67Zm1,0a5.68,5.68,0,1,0,5.68-5.68h0a5.68,5.68,0,0,0-5.59,5.68Z" transform="translate(-18.6 -86)"/><path class="cls-11" d="M336.65,202.67a6.73,6.73,0,1,1,6.74,6.72h0A6.74,6.74,0,0,1,336.65,202.67Zm1.05,0a5.68,5.68,0,1,0,5.68-5.68h0a5.7,5.7,0,0,0-5.68,5.68Z" transform="translate(-18.6 -86)"/><path class="cls-11" d="M373.81,197.58a.53.53,0,0,0-.53-.53A9.52,9.52,0,0,0,367,199.6a.52.52,0,0,0,0,.72l0,0a.51.51,0,0,0,.37.16.51.51,0,0,0,.37-.15,8.56,8.56,0,0,1,5.54-2.24.55.55,0,0,0,.54-.53Z" transform="translate(-18.6 -86)"/><path class="cls-11" d="M338,199.54a18.62,18.62,0,0,0-6-2.45.52.52,0,0,0-.61.43.28.28,0,0,0,0,.09h0a.52.52,0,0,0,.42.51,18.38,18.38,0,0,1,5.6,2.29.47.47,0,0,0,.28.09.54.54,0,0,0,.32-1Z" transform="translate(-18.6 -86)"/><path class="cls-11" d="M349.74,201.15a4.25,4.25,0,0,1,2.89-1.7,3.91,3.91,0,0,1,2.76,1.7l.88-.57a4.86,4.86,0,0,0-3.64-2.18,5.24,5.24,0,0,0-3.75,2.14Z" transform="translate(-18.6 -86)"/><path class="cls-14" d="M176.4,274.92l13.31,48.42.27.89v.69c.49,11.73,11.28,48.09,10.34,54.18s-1.07,14.91,1,18.9c2,3.84,4.06,10.17,5.63,6.91s-1.66-12.3.11-12.55,5.87,7.46,4.42,16,3.67,10.79,3.28,6.59,3-9.31,2.83-15.73c-.16-6-6.67-19.55-6.67-19.55s-.29-36.83-4-54.54-18.37-73.36-18.37-73.36C180.31,260.53,176.4,274.92,176.4,274.92Z" transform="translate(-18.6 -86)"/><path class="cls-12" d="M189.72,323.37l.26.86v.66a56.79,56.79,0,0,1,6.87-2,.76.76,0,0,0-.17-1.51l-.11,0A56.35,56.35,0,0,0,189.72,323.37Z" transform="translate(-18.6 -86)"/><path class="cls-8" d="M193.59,414.48c-.51-3.29-1-6.6-1.49-9.88-.33-2.2-.64-4.38-.95-6.53-1.18-8.22-2.23-16-3.07-22.46-.32-2.45-.61-4.71-.87-6.73-.82-6.44-1.3-10.45-1.3-10.45l-36.19,1.37-36.31-1.37s-.93,7.92-2.43,19.4c-.27,2.09-.57,4.3-.87,6.6-.81,6-1.73,12.68-2.72,19.49v.3c-.31,2.12-.62,4.26-1,6.4v.08h0c-.19,1.26-.38,2.51-.58,3.77Z" transform="translate(-18.6 -86)"/><path class="cls-9" d="M121.76,369.3a3.42,3.42,0,1,1-3.43-3.41h0A3.43,3.43,0,0,1,121.76,369.3Z" transform="translate(-18.6 -86)"/><path class="cls-9" d="M130.22,382.52a3.41,3.41,0,1,1-3.41-3.41,3.41,3.41,0,0,1,3.41,3.41Z" transform="translate(-18.6 -86)"/><path class="cls-9" d="M146.87,375.7a3.41,3.41,0,1,1-3.41-3.41,3.41,3.41,0,0,1,3.41,3.41Z" transform="translate(-18.6 -86)"/><path class="cls-9" d="M120.59,396.55a3.41,3.41,0,1,1-3.41-3.41,3.41,3.41,0,0,1,3.41,3.41Z" transform="translate(-18.6 -86)"/><path class="cls-9" d="M141.4,395.09a3.41,3.41,0,1,1-3.41-3.41A3.41,3.41,0,0,1,141.4,395.09Z" transform="translate(-18.6 -86)"/><path class="cls-9" d="M113.2,381a3.42,3.42,0,0,1-3.09,3.4c.3-2.3.6-4.51.87-6.6A3.41,3.41,0,0,1,113.2,381Z" transform="translate(-18.6 -86)"/><path class="cls-9" d="M175.25,414.48a3.41,3.41,0,0,0-6.7,0Z" transform="translate(-18.6 -86)"/><circle class="cls-9" cx="151.69" cy="310.55" r="3.41"/><path class="cls-9" d="M192.1,404.6a3.41,3.41,0,1,1-1.34-6.55h.39C191.46,400.22,191.77,402.4,192.1,404.6Z" transform="translate(-18.6 -86)"/><path class="cls-9" d="M109.35,407.33a3.39,3.39,0,0,1-3,3.37v-.08c.33-2.14.64-4.28,1-6.4A3.42,3.42,0,0,1,109.35,407.33Z" transform="translate(-18.6 -86)"/><path class="cls-9" d="M132,410.75a3.41,3.41,0,1,1-3.41-3.41,3.41,3.41,0,0,1,3.41,3.41Z" transform="translate(-18.6 -86)"/><path class="cls-9" d="M150.29,407.34a3.42,3.42,0,1,1-3.43-3.41h0A3.43,3.43,0,0,1,150.29,407.34Z" transform="translate(-18.6 -86)"/><path class="cls-9" d="M158.53,389.34a3.41,3.41,0,1,1-3.41-3.41,3.41,3.41,0,0,1,3.41,3.41Z" transform="translate(-18.6 -86)"/><path class="cls-9" d="M188.08,375.61a3,3,0,0,1-.73.09,3.41,3.41,0,1,1-.14-6.82C187.47,370.9,187.76,373.16,188.08,375.61Z" transform="translate(-18.6 -86)"/><path class="cls-9" d="M170.29,375.7a3.41,3.41,0,1,1-3.41-3.41,3.41,3.41,0,0,1,3.41,3.41Z" transform="translate(-18.6 -86)"/><path class="cls-9" d="M182.78,387.85a3.41,3.41,0,1,1-3.41-3.41,3.41,3.41,0,0,1,3.41,3.41Z" transform="translate(-18.6 -86)"/><path class="cls-3" d="M187.52,359.33c-19.09,12.46-54.15,11.49-76.18,0,2.11-13.11,4.88-26.23,4.28-43.68q-.09-2.86-.24-5.7c-.09-1.63-.18-3.26-.29-4.87-1.9-29-6.85-52.75-4.42-55.82a23.8,23.8,0,0,1,5-4.28c.86-.58,1.78-1.17,2.75-1.76,2.28-1.4,4.83-2.8,7.38-4.17,6-3.24,12.2-6.24,15.28-8.28a19.52,19.52,0,0,0,8.11,2h.45a19.52,19.52,0,0,0,8.11-2c2.86,1.9,8.24,4.55,13.73,7.44a118.14,118.14,0,0,1,11.32,6.57,22.91,22.91,0,0,1,4.84,4.16c1.2,1.52.69,8.18-.34,18.06-1,9.71-2.55,22.55-3.47,36.65-.26,3.92-.47,7.93-.61,12C182.65,333.1,185.42,346.22,187.52,359.33Z" transform="translate(-18.6 -86)"/><path class="cls-6" d="M174.12,345.67h0c-15.38-.07-28.5-7.06-36.8-12.92a83.62,83.62,0,0,1-14.47-12.82.71.71,0,0,1,.09-1,.73.73,0,0,1,1,.09,82.27,82.27,0,0,0,14.23,12.58c8.12,5.73,20.94,12.56,35.91,12.63a.74.74,0,0,1,0,1.48Z" transform="translate(-18.6 -86)"/><path class="cls-6" d="M158.1,350.89c-13.34,0-26.65-7.6-27.25-7.95a.73.73,0,0,1-.27-1,.76.76,0,0,1,1-.27c.16.09,15.81,9,29.69,7.6a.73.73,0,0,1,.81.64h0a.75.75,0,0,1-.66.82C160.33,350.84,159.21,350.89,158.1,350.89Z" transform="translate(-18.6 -86)"/><path class="cls-6" d="M146.29,268.16a.74.74,0,0,1-.14-1.47c18.74-3.56,24.39-15.62,24.45-15.74a.73.73,0,0,1,1-.38h0a.75.75,0,0,1,.37,1h0c-.24.53-6,12.88-25.52,16.58Z" transform="translate(-18.6 -86)"/><path class="cls-14" d="M171.5,238.21c-3.72,8.49-12.46,20-24.35,17.94-11.52-2-17.39-10.8-21.33-17.1,6.05-3.24,12.2-6.23,15.28-8.28a19.68,19.68,0,0,0,8.11,2h.45a19.68,19.68,0,0,0,8.11-2C160.63,232.67,166,235.32,171.5,238.21Z" transform="translate(-18.6 -86)"/><path class="cls-8" d="M149.66,233.11Z" transform="translate(-18.6 -86)"/><path class="cls-8" d="M168.68,171.76s9,13.94,8,28.46S178,231.5,165,230.77s-36.16,5.21-43.53-6.1S168.68,171.76,168.68,171.76Z" transform="translate(-18.6 -86)"/><path class="cls-12" d="M130.53,197.3s-3.59-4.78-6.25-.83,1.1,15.63,7.63,12.78Z" transform="translate(-18.6 -86)"/><path class="cls-13" d="M130.48,205.64a.56.56,0,0,1-.53-.4c-1-3.61-4.74-5.07-4.78-5.08a.55.55,0,0,1-.32-.71h0a.56.56,0,0,1,.71-.33c.17.07,4.29,1.67,5.45,5.82a.53.53,0,0,1-.36.67h0Z" transform="translate(-18.6 -86)"/><path class="cls-13" d="M126.71,203.82a.54.54,0,0,1-.56-.52.56.56,0,0,1,.1-.33,5,5,0,0,1,2.07-1.66.55.55,0,1,1,.53,1l-.08,0a3.92,3.92,0,0,0-1.59,1.26A.55.55,0,0,1,126.71,203.82Z" transform="translate(-18.6 -86)"/><path class="cls-12" d="M167.48,197.3s3.59-4.78,6.26-.83-1.11,15.63-7.63,12.78Z" transform="translate(-18.6 -86)"/><path class="cls-13" d="M167.53,205.64a.56.56,0,0,0,.53-.4c1-3.61,4.75-5.07,4.79-5.08a.57.57,0,0,0,.1-.79.55.55,0,0,0-.49-.21c-.18.07-4.3,1.67-5.46,5.82a.56.56,0,0,0,.38.68Z" transform="translate(-18.6 -86)"/><path class="cls-13" d="M171.3,203.82a.52.52,0,0,0,.3-.08.55.55,0,0,0,.17-.76h0a4.88,4.88,0,0,0-2.07-1.66.54.54,0,0,0-.72.26h0a.54.54,0,0,0,.27.73h0a4.11,4.11,0,0,1,1.6,1.26A.51.51,0,0,0,171.3,203.82Z" transform="translate(-18.6 -86)"/><path class="cls-14" d="M157.83,219.15v11.62s-3.46,5.91-8.14,6.31-8.84-5.09-8.84-5.09V220Z" transform="translate(-18.6 -86)"/><path class="cls-12" d="M157.83,219.15v5.16c-3.14,3.48-8.72,4.72-17,3.5V220Z" transform="translate(-18.6 -86)"/><path class="cls-14" d="M170.08,189.33A114.49,114.49,0,0,1,168.57,204c-.21,1.12-.46,2.18-.73,3.13-2.44,8.56-8.55,23.23-25.67,17.12-7.55-2.7-11.06-11.11-12.62-19.68a82.94,82.94,0,0,1-1.14-15.89,12.11,12.11,0,0,1,6.15-10.31c10.1-5.73,20.76-3.59,27.78-.9A12.08,12.08,0,0,1,170.08,189.33Z" transform="translate(-18.6 -86)"/><path class="cls-8" d="M141.47,198c0,1.24-.64,2.24-1.43,2.24s-1.42-1-1.42-2.24.64-2.25,1.42-2.25S141.47,196.74,141.47,198Z" transform="translate(-18.6 -86)"/><path class="cls-8" d="M159.09,198c0,1.24-.64,2.24-1.42,2.24s-1.43-1-1.43-2.24.64-2.25,1.43-2.25S159.09,196.74,159.09,198Z" transform="translate(-18.6 -86)"/><path class="cls-8" d="M137.22,191.3a23.77,23.77,0,0,1,6.1-.92,1.06,1.06,0,0,1,1.08,1,1.23,1.23,0,0,1,0,.2h0a1.06,1.06,0,0,1-1.09.87c-1.71-.08-6.23.16-8.36,1a1.61,1.61,0,0,1,.49-1.13A3.64,3.64,0,0,1,137.22,191.3Z" transform="translate(-18.6 -86)"/><path class="cls-8" d="M160.27,191.34a23.82,23.82,0,0,0-6.1-.91,1.07,1.07,0,0,0-1.07,1.07,1,1,0,0,0,0,.17h0a1,1,0,0,0,1.09.86c1.72-.08,6.23.16,8.36,1a1.63,1.63,0,0,0-.49-1.14A3.74,3.74,0,0,0,160.27,191.34Z" transform="translate(-18.6 -86)"/><path class="cls-12" d="M149.2,208.22a2.39,2.39,0,0,1-1.2-.29,1.68,1.68,0,0,1-.8-1.34,83.46,83.46,0,0,1,.33-8.66.54.54,0,0,1,.58-.5h0a.55.55,0,0,1,.51.59h0c0,.07-.53,6.53-.34,8.45a.6.6,0,0,0,.28.52,3.26,3.26,0,0,0,2.21-.21.55.55,0,0,1,.72.3h0a.56.56,0,0,1-.3.72A6,6,0,0,1,149.2,208.22Z" transform="translate(-18.6 -86)"/><path class="cls-11" d="M142.19,211.7c.42,2.1,1.81,6,6.48,6s6-3.53,6.44-6Z" transform="translate(-18.6 -86)"/><path class="cls-12" d="M148.6,220.88a5.64,5.64,0,0,1-2.59-.76.55.55,0,0,1-.18-.76h0a.57.57,0,0,1,.76-.18h0a4.28,4.28,0,0,0,2,.6,4.67,4.67,0,0,0,2.12-.6.55.55,0,0,1,.57.95h0A5.87,5.87,0,0,1,148.6,220.88Z" transform="translate(-18.6 -86)"/><path class="cls-8" d="M172.3,188.43a1.82,1.82,0,0,1-1.33,1,34.73,34.73,0,0,1-.2,4.08c-.68,8-2.69,9.37-3.15,7.4a90,90,0,0,1-.13-11.26,26.36,26.36,0,0,1-2.93-.37l-1.84-7.74-.65,7.64c-2.78,1-9.25-.58-9.25-.58l-2.17-7.6-1.34,7.34c-4.16,2-9.36.68-9.36.68l-1.2-7.92L136,189s-8.87,3.19-9,0c-.06-1.85,1.3-7.07,2.44-11.11a16.74,16.74,0,0,1,8.07-10.24c11-5.91,22.65-2.76,26.65-.38C172.65,172.34,172.3,188.43,172.3,188.43Z" transform="translate(-18.6 -86)"/><path class="cls-8" d="M132.16,172.35s-7.56,8.69-10,24.22-5.74,27,3.62,32.12c10.12,5.54,12.07-3.9,11.93-7s-11.59-13.47-5.84-37.28C133.76,176.73,132.16,172.35,132.16,172.35Z" transform="translate(-18.6 -86)"/><path class="cls-11" d="M170.21,209.51a1.3,1.3,0,1,1-1.31-1.29h0A1.29,1.29,0,0,1,170.21,209.51Z" transform="translate(-18.6 -86)"/><path class="cls-14" d="M115.09,305.08c-1.9-29-6.85-52.75-4.42-55.82a23.8,23.8,0,0,1,5-4.28C117.92,255.43,123.54,286.85,115.09,305.08Z" transform="translate(-18.6 -86)"/><path class="cls-14" d="M187.32,267c-1,9.71-2.55,22.55-3.47,36.65-7.49-18.19-3.25-48.31-1-58.87a22.91,22.91,0,0,1,4.84,4.16C188.86,250.46,188.35,257.12,187.32,267Z" transform="translate(-18.6 -86)"/><path class="cls-14" d="M119.24,280.17l-8.43,27.05-9.22,25.72a9,9,0,0,1-11.12,6.33,9.46,9.46,0,0,1-1.38-.5l-.26-.12c-8.78-4.14-3.94-21.34-3.94-21.34l1.66-.13c.67-1.89,2.49-6.7,4.81-12.73.28-.74.57-1.51.87-2.28.5-1.28,1-2.61,1.53-4L96,292.31c5.69-14.74,10.4-30.75,10.4-30.75l3.92-11.65Z" transform="translate(-18.6 -86)"/><path class="cls-12" d="M95.58,322.81h-.1a.69.69,0,0,1-.69-.58c-1.28-8.16-2.57-14.18-3.43-17.79l.87-2.28c.8,3.18,2.37,10,3.93,19.85a.7.7,0,0,1-.56.8Z" transform="translate(-18.6 -86)"/><path class="cls-14" d="M94.33,323.21s-1.21-19.59-5.39-23.76-8-5.76-11.92-5.62-7.61.63-7.37,2.24c0,0-9-1.36-13,1s11.91,4.37,16.64,4.5,7.23,2.76,7.42,5.58,2.92,21.5,2.92,21.5Z" transform="translate(-18.6 -86)"/><path class="cls-9" d="M99.1,297.34l-59.71.4a4.07,4.07,0,0,1-4.09-4h0a4.07,4.07,0,0,1,4-4.1l59.7-.39a4.07,4.07,0,0,1,4.1,4h0A4.07,4.07,0,0,1,99.1,297.34Z" transform="translate(-18.6 -86)"/><path class="cls-8" d="M35.34,297.77,22.27,250.1a4.23,4.23,0,0,1,3-5.19,4,4,0,0,1,1.08-.15l28.06-.19a4.22,4.22,0,0,1,4.08,3.06l14.38,49.89Z" transform="translate(-18.6 -86)"/><path class="cls-9" d="M58.46,247.63l14.26,49.48h3.21l-14.26-49.5a4.23,4.23,0,0,0-4.09-3.06h-3.2A4.21,4.21,0,0,1,58.46,247.63Z" transform="translate(-18.6 -86)"/><path class="cls-2" d="M51.42,273.26c.75,3.15-1.19,5.72-4.34,5.74A7.61,7.61,0,0,1,40,273.34a4.39,4.39,0,0,1,2.84-5.52,4.23,4.23,0,0,1,1.5-.21A7.6,7.6,0,0,1,51.42,273.26Z" transform="translate(-18.6 -86)"/><rect class="cls-4" x="35.51" y="328.48" width="389.66" height="15.16" rx="7.23"/><path class="cls-2" d="M443.77,421.71v.34H54.11v-.34a7.22,7.22,0,0,1,7.21-7.23H436.54A7.23,7.23,0,0,1,443.77,421.71Z" transform="translate(-18.6 -86)"/></g></svg>